M48
;DRILL file {KiCad 4.0.2-stable} date 2/2/2017 11:01:52 PM
;FORMAT={-:-/ absolute / inch / decimal}
FMAT,2
INCH,TZ
T1C0.024
T2C0.031
T3C0.035
T4C0.040
T5C0.059
T6C0.166
%
G90
G05
M72
T1
X4.4094Y-4.1339
X4.4594Y-4.0839
X4.5094Y-4.1339
X4.8425Y-4.1339
X4.8925Y-4.0839
X4.9425Y-4.1339
X5.2362Y-4.1339
X5.2862Y-4.0839
X5.3362Y-4.1339
X5.6299Y-4.1339
X5.6799Y-4.0839
X5.7299Y-4.1339
T2
X4.2295Y-2.2047
X4.2516Y-4.3441
X4.4488Y-3.5039
X4.4488Y-3.9039
X4.4535Y-4.335
X4.8819Y-3.4976
X4.8819Y-3.8976
X5.2756Y-3.4976
X5.2756Y-3.8976
X5.6693Y-3.4976
X5.6693Y-3.8976
X6.402Y-3.6906
X6.5295Y-3.5016
X6.5957Y-3.3059
T3
X4.6457Y-3.3071
X4.6457Y-3.7071
X5.0787Y-3.3071
X5.0787Y-3.7071
X5.4724Y-3.3071
X5.4724Y-3.7071
X5.8661Y-3.3071
X5.8661Y-3.7071
T4
X6.2354Y-2.2921
X6.2354Y-2.3921
X6.2354Y-2.4921
X6.2354Y-2.5921
X6.2354Y-2.6921
X6.2354Y-2.7921
X6.2354Y-2.8921
X6.2354Y-2.9921
X6.2354Y-3.0921
X6.2354Y-3.1921
X6.2354Y-3.2921
X6.2354Y-3.3921
X6.2354Y-3.4921
X6.2354Y-3.5921
X6.2354Y-3.6921
X6.8354Y-2.2921
X6.8354Y-2.3921
X6.8354Y-2.4921
X6.8354Y-2.5921
X6.8354Y-2.6921
X6.8354Y-2.7921
X6.8354Y-2.8921
X6.8354Y-2.9921
X6.8354Y-3.0921
X6.8354Y-3.1921
X6.8354Y-3.2921
X6.8354Y-3.3921
X6.8354Y-3.4921
X6.8354Y-3.5921
X6.8354Y-3.6921
T5
X3.5433Y-2.5984
X3.5433Y-2.7953
X3.5433Y-2.9921
X3.5433Y-3.3858
X3.5433Y-3.5827
X3.5433Y-3.7795
X3.5433Y-3.9795
X3.8583Y-4.6063
X4.0551Y-2.2047
X4.0551Y-3.0047
X4.0551Y-4.6063
X4.252Y-4.6063
X4.452Y-4.6063
X4.652Y-4.6063
X4.852Y-4.6063
X5.052Y-4.6063
X5.252Y-4.6063
X5.452Y-4.6063
X5.652Y-4.6063
X5.8346Y-2.2047
X5.8346Y-3.0047
X5.852Y-4.6063
X6.052Y-4.6063
X6.2583Y-4.6063
X6.4583Y-4.6063
X6.6583Y-4.6063
T6
X3.4646Y-2.2441
X3.4646Y-4.685
X7.126Y-2.2441
X7.126Y-4.685
T0
M30
