G04 #@! TF.FileFunction,Copper,L1,Top,Signal*
%FSLAX46Y46*%
G04 Gerber Fmt 4.6, Leading zero omitted, Abs format (unit mm)*
G04 Created by KiCad (PCBNEW 4.0.2-stable) date 2/2/2017 11:02:33 PM*
%MOMM*%
G01*
G04 APERTURE LIST*
%ADD10C,0.100000*%
%ADD11C,3.000000*%
%ADD12C,1.300000*%
%ADD13R,2.286000X1.574800*%
%ADD14O,2.286000X1.574800*%
%ADD15R,1.800000X1.800000*%
%ADD16O,1.800000X1.800000*%
%ADD17C,1.600000*%
%ADD18O,1.600000X1.600000*%
%ADD19C,6.197600*%
%ADD20C,0.600000*%
G04 APERTURE END LIST*
D10*
D11*
X169120000Y-117000000D03*
X164040000Y-117000000D03*
X158960000Y-117000000D03*
X153720000Y-117000000D03*
X148640000Y-117000000D03*
X143560000Y-117000000D03*
X138480000Y-117000000D03*
X133400000Y-117000000D03*
X128320000Y-117000000D03*
X123240000Y-117000000D03*
X118160000Y-117000000D03*
X113080000Y-117000000D03*
X98000000Y-117000000D03*
X103000000Y-117000000D03*
X108000000Y-117000000D03*
X90000000Y-101080000D03*
X90000000Y-86000000D03*
X90000000Y-91000000D03*
X90000000Y-96000000D03*
X103000000Y-56000000D03*
X103000000Y-76320000D03*
X148200000Y-56000000D03*
X148200000Y-76320000D03*
X90000000Y-66000000D03*
X90000000Y-71000000D03*
X90000000Y-76000000D03*
D12*
X113270000Y-103730000D03*
X114540000Y-105000000D03*
X112000000Y-105000000D03*
X144270000Y-103730000D03*
X145540000Y-105000000D03*
X143000000Y-105000000D03*
X134270000Y-103730000D03*
X135540000Y-105000000D03*
X133000000Y-105000000D03*
X124270000Y-103730000D03*
X125540000Y-105000000D03*
X123000000Y-105000000D03*
D13*
X158380000Y-58220000D03*
D14*
X158380000Y-60760000D03*
X158380000Y-63300000D03*
X158380000Y-65840000D03*
X158380000Y-68380000D03*
X158380000Y-70920000D03*
X158380000Y-73460000D03*
X158380000Y-76000000D03*
X158380000Y-78540000D03*
X158380000Y-81080000D03*
X158380000Y-83620000D03*
X158380000Y-86160000D03*
X158380000Y-88700000D03*
X158380000Y-91240000D03*
X158380000Y-93780000D03*
X173620000Y-93780000D03*
X173620000Y-91240000D03*
X173620000Y-88700000D03*
X173620000Y-86160000D03*
X173620000Y-83620000D03*
X173620000Y-81080000D03*
X173620000Y-78540000D03*
X173620000Y-76000000D03*
X173620000Y-73460000D03*
X173620000Y-70920000D03*
X173620000Y-68380000D03*
X173620000Y-65840000D03*
X173620000Y-63300000D03*
X173620000Y-60760000D03*
X173620000Y-58220000D03*
D15*
X118000000Y-84000000D03*
D16*
X118000000Y-94160000D03*
D15*
X149000000Y-84000000D03*
D16*
X149000000Y-94160000D03*
D15*
X139000000Y-84000000D03*
D16*
X139000000Y-94160000D03*
D15*
X129000000Y-84000000D03*
D16*
X129000000Y-94160000D03*
D17*
X113000000Y-89000000D03*
D18*
X113000000Y-99160000D03*
D17*
X144000000Y-99000000D03*
D18*
X144000000Y-88840000D03*
D17*
X134000000Y-99000000D03*
D18*
X134000000Y-88840000D03*
D17*
X124000000Y-99000000D03*
D18*
X124000000Y-88840000D03*
D19*
X88000000Y-57000000D03*
X88000000Y-119000000D03*
X181000000Y-119000000D03*
X181000000Y-57000000D03*
D17*
X167530000Y-83970000D03*
X113120000Y-110110000D03*
X165850000Y-88940000D03*
X107990000Y-110340000D03*
X162610000Y-93740000D03*
X107430000Y-56000000D03*
D20*
X167530000Y-92500000D02*
X167530000Y-83970000D01*
X152170000Y-107860000D02*
X167530000Y-92500000D01*
X115370000Y-107860000D02*
X152170000Y-107860000D01*
X113120000Y-110110000D02*
X115370000Y-107860000D01*
X165850000Y-93040000D02*
X165850000Y-88940000D01*
X151850000Y-107040000D02*
X165850000Y-93040000D01*
X111290000Y-107040000D02*
X151850000Y-107040000D01*
X107990000Y-110340000D02*
X111290000Y-107040000D01*
X162610000Y-56880000D02*
X162610000Y-93740000D01*
X158930000Y-53200000D02*
X162610000Y-56880000D01*
X145960000Y-53200000D02*
X158930000Y-53200000D01*
X143160000Y-56000000D02*
X145960000Y-53200000D01*
X107430000Y-56000000D02*
X143160000Y-56000000D01*
M02*
